<svg width="18" height="18" viewBox="0 0 18 18" fill="none" xmlns="http://www.w3.org/2000/svg">
<rect width="18" height="18" rx="2" fill="url(#paint0_linear_5808_21907)"/>
<path d="M9.12234 4.264C9.91434 4.264 10.5623 4.492 11.0783 4.948C11.5823 5.404 11.8463 6.016 11.8463 6.76C11.8463 7.504 11.5583 8.176 11.0063 8.776C10.7063 9.088 10.1183 9.556 9.23034 10.156C8.13834 10.888 7.51434 11.548 7.35834 12.124H11.8583V13H6.14634C6.14634 12.22 6.42234 11.512 6.99834 10.876C7.33434 10.492 7.94634 9.976 8.85834 9.352C9.53034 8.872 9.97434 8.524 10.2023 8.284C10.6343 7.816 10.8623 7.3 10.8623 6.748C10.8623 6.22 10.7063 5.824 10.3943 5.536C10.0823 5.248 9.63834 5.104 9.08634 5.104C8.49834 5.104 8.04234 5.296 7.73034 5.704C7.39434 6.088 7.21434 6.664 7.20234 7.42H6.21834C6.21834 6.46 6.49434 5.692 7.02234 5.128C7.55034 4.552 8.25834 4.264 9.12234 4.264Z" fill="white"/>
<defs><linearGradient id="paint0_linear_5808_21907" x1="-4.5" y1="-8.4375" x2="15.1875" y2="14.0625" gradientUnits="userSpaceOnUse"><stop stop-color="#FF99AD"/><stop offset="0.5" stop-color="#C897FF"/><stop offset="1" stop-color="#7A5CFF"/></linearGradient></defs>
</svg>
