<svg preserveAspectRatio="none" width="100%" height="100%" overflow="visible" style="display: block;" viewBox="0 0 16 16" fill="none" xmlns="http://www.w3.org/2000/svg">
<g id="search">
<g id="Union">
<path d="M12.2995 13.0066C11.0901 14.053 9.51314 14.6861 7.78837 14.6861C3.97886 14.6861 0.890651 11.5979 0.890651 7.78837C0.890651 3.97887 3.97886 0.890655 7.78837 0.890655C11.5979 0.890655 14.6861 3.97887 14.6861 7.78837C14.6861 9.51317 14.053 11.0901 13.0066 12.2995L15.0396 14.3325L14.3325 15.0396L12.2995 13.0066ZM13.6861 7.78837C13.6861 4.53115 11.0456 1.89065 7.78837 1.89065C4.53115 1.89065 1.89065 4.53115 1.89065 7.78837C1.89065 11.0456 4.53115 13.6861 7.78837 13.6861C11.0456 13.6861 13.6861 11.0456 13.6861 7.78837Z" fill="#1A1A1A"/>
</g>
</g>
</svg>
